<?xml version="1.0" standalone="no"?>
<!DOCTYPE svg PUBLIC "-//W3C//DTD SVG 20010904//EN"
 "http://www.w3.org/TR/2001/REC-SVG-20010904/DTD/svg10.dtd">
<svg version="1.0" xmlns="http://www.w3.org/2000/svg"
 width="1024.000000pt" height="1024.000000pt" viewBox="0 0 1024.000000 1024.000000"
 preserveAspectRatio="xMidYMid meet">
<metadata>
Created by potrace 1.11, written by Peter Selinger 2001-2013
</metadata>
<g transform="translate(0.000000,1024.000000) scale(0.100000,-0.100000)"
fill="#000000" stroke="none">
<path d="M3237 6465 c-336 -85 -557 -454 -516 -859 39 -391 317 -686 646 -686
96 0 163 15 250 56 173 82 298 236 368 454 37 114 46 323 20 451 -43 214 -180
421 -342 515 -124 73 -298 101 -426 69z"/>
<path d="M6763 6460 c-162 -42 -299 -150 -394 -311 -87 -145 -125 -310 -116
-499 10 -229 95 -422 249 -565 327 -306 812 -171 991 277 48 120 61 191 60
343 0 167 -19 251 -88 390 -143 291 -424 438 -702 365z"/>
<path d="M2811 3976 c-48 -17 -108 -71 -133 -119 -30 -57 -31 -166 -3 -219 57
-105 311 -356 520 -513 441 -332 981 -540 1575 -606 148 -17 552 -17 700 0
699 78 1304 344 1795 788 119 108 268 273 300 331 28 53 27 162 -2 218 -43 81
-129 134 -218 134 -89 0 -110 -14 -295 -201 -182 -183 -253 -244 -405 -346
-881 -592 -2130 -601 -3015 -22 -171 112 -299 219 -470 396 -118 121 -153 152
-186 161 -52 15 -119 14 -163 -2z"/>
</g>
</svg>
